<?xml version="1.0" encoding="utf-8"?>
<!-- Generator: Adobe Illustrator 23.0.3, SVG Export Plug-In . SVG Version: 6.00 Build 0)  -->
<svg version="1.1" xmlns="http://www.w3.org/2000/svg" xmlns:xlink="http://www.w3.org/1999/xlink" x="0px" y="0px"
	 viewBox="0 0 411.2 138.6" style="enable-background:new 0 0 411.2 138.6;" xml:space="preserve">
<style type="text/css">
	.st0{fill:#0077C1;}
	.st1{fill:#FFFFFF;}
	.st2{fill:#4D4D4D;}
	.st3{fill:url(#SVGID_1_);}
	.st4{fill:url(#SVGID_2_);}
	.st5{fill:url(#SVGID_3_);}
	.st6{fill:#52C4ED;}
	.st7{fill:#304856;}
	.st8{fill:url(#SVGID_4_);}
	.st9{fill:url(#SVGID_5_);}
	.st10{fill:url(#SVGID_6_);}
	.st11{fill:url(#SVGID_7_);}
	.st12{fill:url(#SVGID_8_);}
	.st13{fill:url(#SVGID_9_);}
	.st14{display:none;}
	.st15{display:inline;opacity:0.1;fill:#69747A;}
	.st16{display:inline;opacity:0.1;fill:none;stroke:#69747A;stroke-miterlimit:10;}
	.st17{display:inline;}
	.st18{opacity:0.1;fill:#69747A;}
</style>
<g id="Layer_1">
	<g>
		<path class="st1" d="M41.6,118.4h-6.8L0,46.3h8.7l29.4,62.4l27.5-62.4h8.3L41.6,118.4z"/>
		<path class="st1" d="M80.8,85c1,18.7,10.9,28,29.7,28c14.3,0,23.7-5.9,28.2-17.6h7.7c-2.9,9.2-7.7,15.7-14.6,19.5
			c-6,3.3-13.2,5-21.5,5c-12.1,0-21.4-3.5-27.7-10.5c-6-6.5-9-15.5-9-27c0-11.3,3.4-20.5,10.3-27.5c6.8-7,15.9-10.5,27.2-10.5
			c11.3,0,20.4,3.2,27.2,9.5c6.8,6.3,10.2,14.9,10.2,25.6v5.2L80.8,85z M110.9,51.5c-8.4,0-15.2,2.4-20.6,7.1
			c-5.4,4.7-8.5,11.2-9.4,19.5h59c-0.5-8.3-3.4-14.8-8.6-19.5C126,53.9,119.2,51.5,110.9,51.5z"/>
		<path class="st1" d="M159.9,118.4V20.7h7.5v97.7H159.9z"/>
		<path class="st1" d="M218.9,79.7c-7.9-1.4-13.1-2.3-15.6-2.8c-9.6-1.7-14.5-5.5-14.5-11.4c0-4.5,2.2-8.1,6.5-10.6
			c3.7-2.2,8.3-3.2,13.7-3.2c8.1,0,13.9,1.5,17.6,4.5c3.6,3,5.5,7.8,5.5,14.5h8c0-17.5-10.6-26.3-31.7-26.3c-7.3,0-13.4,1.7-18.5,5
			c-5.9,3.8-8.9,9.2-8.9,16.1c0,10.5,7.4,16.9,22.1,19.2c9.2,1.4,14.1,2.2,14.8,2.4c9.8,2.3,14.8,6.4,14.8,12.2
			c0,4.8-2.4,8.5-7.1,10.9c-3.8,1.9-8.7,2.8-14.6,2.8c-8.8,0-15.2-1.8-19.2-5.3c-3.2-2.8-5.1-6.9-5.8-12.2h-7.9
			c1.7,16.5,12.6,24.8,32.7,24.8c8.1,0,14.7-1.4,19.9-4.3c6.5-3.6,9.7-9.2,9.7-16.7C240.4,88.7,233.2,82.2,218.9,79.7z"/>
		<path class="st1" d="M287.5,120c-11.7,0-21-3.5-27.8-10.5c-6.8-7-10.3-16-10.3-27.2c0-11.5,3.5-20.7,10.6-27.5
			c7-6.8,16.3-10.3,27.8-10.3c11.5,0,20.7,3.4,27.7,10.3c6.9,6.8,10.4,16,10.4,27.5c0,11.5-3.5,20.7-10.6,27.4
			C308.3,116.6,299,120,287.5,120z M310.2,60c-5.4-5.7-12.9-8.5-22.6-8.5c-9.4,0-16.9,2.8-22.4,8.3c-5.5,5.6-8.3,13.1-8.3,22.5
			c0,9.3,2.8,16.8,8.3,22.4c5.6,5.6,13,8.3,22.4,8.3c9.3,0,16.8-2.8,22.4-8.3c5.6-5.6,8.3-13,8.3-22.4
			C318.3,73.1,315.6,65.7,310.2,60z"/>
		<path class="st1" d="M396.2,59.8v58.6H389l-0.3-58.6h-14.6v-6.9h14.6V27.8h7.5v25.1h14.9v6.9H396.2z"/>
		<path class="st1" d="M348.1,50.1v2.8h18.5v6.9h-18.5v58.8h-7.5V59.8h-11v-6.9h11v-4.7c0-11,7.4-20.4,16.8-25c3.9-1.9,8.3-3,12.9-3
			v7.6C358.1,27.8,348.1,37.8,348.1,50.1z"/>
	</g>
</g>
<g id="Layer_2" class="st14">
	<g class="st17">
		<path class="st18" d="M11.1,6.8C3.5,9.9-5.2,6.2-8.2-1.4l-25.3-62.8c-3.1-7.6,0.6-16.2,8.2-19.3C-17.7-86.6-9-82.9-6-75.3
			l25.3,62.8C22.3-4.9,18.7,3.8,11.1,6.8z"/>
	</g>
	<rect x="-239.3" y="-179.6" class="st16" width="282.7" height="282.7"/>
</g>
</svg>
